<?xml version="1.0" encoding="UTF-8"?>
<!DOCTYPE svg PUBLIC "-//W3C//DTD SVG 1.1//EN" "http://www.w3.org/Graphics/SVG/1.1/DTD/svg11.dtd">
<!-- Creator: CorelDRAW -->
<svg xmlns="http://www.w3.org/2000/svg" xml:space="preserve" width="512px" height="512px" version="1.1" style="shape-rendering:geometricPrecision; text-rendering:geometricPrecision; image-rendering:optimizeQuality; fill-rule:evenodd; clip-rule:evenodd"
viewBox="0 0 16.13 16.13"
 xmlns:xlink="http://www.w3.org/1999/xlink"
 xmlns:xodm="http://www.corel.com/coreldraw/odm/2003">
 <defs>
  <style type="text/css">
   <![CDATA[
    .fil1 {fill:#FEFEFE}
    .fil0 {fill:#1C2B40}
    .fil2 {fill:#FEFEFE;fill-rule:nonzero}
   ]]>
  </style>
 </defs>
 <g id="Camada_x0020_1">
  <metadata id="CorelCorpID_0Corel-Layer"/>
  <rect class="fil0" width="16.13" height="16.13" rx="1.56" ry="1.61"/>
  <g id="_2837108597520">
   <path class="fil1" d="M8.07 11.83l0 -0.55c0,-0.02 0,-0.04 0,-0.06 0,-0.02 0,-0.04 0,-0.06l0 -0.01 0.01 0c0,-0.01 0,-0.02 0,-0.03l0 -0.01c0,0 0,-0.01 0,-0.02l0 0c0,-0.01 0,-0.02 0,-0.02l0 -0.01c0,0 0.01,-0.01 0.01,-0.02l0 0c0,-0.03 0.01,-0.06 0.02,-0.09l0 0c0,-0.01 0,-0.01 0,-0.02l0 -0.01c0,0 0.01,-0.01 0.01,-0.01l0 -0.01 0.01 -0.02 0 0c0,-0.01 0,-0.02 0,-0.02l0.01 -0.01c0,-0.02 0.01,-0.04 0.02,-0.06l0 0c0,0 0,-0.01 0.01,-0.02l0 0c0,-0.01 0,-0.01 0.01,-0.02l0 0c0,-0.01 0,-0.01 0.01,-0.02l0 -0.01c0,0 0,-0.01 0.01,-0.01l0 -0.01c0,0 0.01,-0.01 0.01,-0.01l0 -0.01c0.01,-0.01 0.02,-0.03 0.03,-0.05l0.01 0 0 -0.02 0.01 -0.01c0,0 0,0 0.01,-0.01l0 -0.01 0.01 -0.01 0.01 0c0,-0.01 0,-0.01 0.01,-0.02l0 0c0.02,-0.03 0.04,-0.05 0.05,-0.07l0.01 0c0,-0.01 0.01,-0.01 0.01,-0.02l0 0c0.01,0 0.01,-0.01 0.02,-0.01l0 -0.01c0,0 0.01,-0.01 0.01,-0.01l0.01 0c0.02,-0.03 0.04,-0.04 0.06,-0.06 0.01,-0.01 0.01,-0.01 0.02,-0.02l0 0c0.01,0 0.01,-0.01 0.02,-0.01l0 0c0.01,-0.01 0.01,-0.01 0.02,-0.02l0 0c0,0 0.01,-0.01 0.02,-0.01l0 0c0.03,-0.02 0.06,-0.04 0.09,-0.06l0 0c0.01,0 0.02,-0.01 0.02,-0.01l0.01 0c0,-0.01 0.01,-0.01 0.02,-0.01l0 0c0.04,-0.02 0.08,-0.04 0.12,-0.06l0.01 0c0,0 0.01,0 0.02,-0.01l0 0c0.02,0 0.04,-0.01 0.07,-0.02l-0.84 0 0 -5.84 6.97 0 -1.16 1.83 -3.59 0 0 1.22 2.82 0 -1.17 1.82 -1.65 0 0 1.97c0,0.03 0,0.05 0,0.08 0,0.03 0,0.05 0,0.08l0 0.53 -0.18 0 0 0 -1.85 0 0 0 -0.19 0z"/>
   <polygon class="fil2" points="1.13,10.14 3.95,7.19 1.09,4.3 3.44,4.3 5.13,6.05 6.81,4.3 8.87,4.3 6.25,7.06 9.21,10.14 6.88,10.14 5.07,8.23 3.23,10.14 "/>
  </g>
 </g>
</svg>
